<?xml version="1.0" encoding="UTF-8" standalone="no"?>
<svg
   xmlns:dc="http://purl.org/dc/elements/1.1/"
   xmlns:cc="http://creativecommons.org/ns#"
   xmlns:rdf="http://www.w3.org/1999/02/22-rdf-syntax-ns#"
   xmlns:svg="http://www.w3.org/2000/svg"
   xmlns="http://www.w3.org/2000/svg"
   viewBox="0 0 494.61731 252.73148"
   height="252.73148"
   width="494.61731"
   xml:space="preserve"
   id="svg2"
   version="1.1"><metadata
     id="metadata8"><rdf:RDF><cc:Work
         rdf:about=""><dc:format>image/svg+xml</dc:format><dc:type
           rdf:resource="http://purl.org/dc/dcmitype/StillImage" /></cc:Work></rdf:RDF></metadata><defs
     id="defs6" /><g
     transform="matrix(1.3333333,0,0,-1.3333333,0,252.73147)"
     id="g10"><g
       transform="scale(0.1)"
       id="g12"><path
         id="path14"
         style="fill:#ffffff;fill-opacity:1;fill-rule:nonzero;stroke:none"
         d="m 3687.96,1487.09 c -30.58,94.81 -89.95,172.62 -165.16,226.43 -75.2,53.83 -166.35,83.94 -261.01,83.95 -45.65,0.01 -92.1,-7.02 -137.78,-21.73 l -83.09,-26.78 4.59,104.81 c 0.04,0.88 -0.13,1.71 -0.15,2.58 -0.03,1.44 -0.06,2.88 -0.24,4.33 -0.19,1.45 -0.54,2.84 -0.87,4.24 -0.21,0.85 -0.27,1.7 -0.53,2.54 -0.09,0.31 -0.27,0.58 -0.38,0.89 -0.49,1.43 -1.13,2.77 -1.76,4.12 -0.51,1.07 -0.95,2.16 -1.54,3.17 -0.66,1.13 -1.46,2.15 -2.22,3.21 -0.77,1.06 -1.49,2.15 -2.35,3.12 -0.82,0.92 -1.75,1.72 -2.65,2.57 -0.96,0.9 -1.88,1.84 -2.93,2.64 -1.02,0.78 -2.14,1.42 -3.24,2.11 -1.06,0.67 -2.1,1.38 -3.23,1.94 -1.15,0.58 -2.36,0.99 -3.57,1.45 -1.22,0.48 -2.43,0.98 -3.71,1.34 -1.12,0.3 -2.29,0.46 -3.46,0.68 -1.46,0.26 -2.91,0.53 -4.42,0.64 -0.33,0.02 -0.63,0.12 -0.97,0.14 -0.88,0.04 -1.74,-0.13 -2.61,-0.15 -1.44,-0.03 -2.85,-0.06 -4.29,-0.24 -1.46,-0.19 -2.85,-0.54 -4.26,-0.88 -0.84,-0.21 -1.69,-0.26 -2.53,-0.52 l -172.99,-54.13 c -15.32,-4.79 -26.37,-18.42 -27.89,-34.4 -1.51,-15.98 6.77,-31.43 20.91,-39.02 v 0 c 0.11,-0.07 0.83,-0.61 1.86,-1.94 1.55,-1.97 3.6,-5.72 5.12,-10.34 1.4,-4.21 2.29,-9.06 2.65,-13.61 l -2.97,-64.44 c -4.58,0.17 -9.23,-0.42 -13.71,-1.86 l -1892.568,-606.52 10.734,189.64 c 1.004,17.86 -10.058,34.31 -26.973,40.1 -16.906,5.8 -35.73,-0.4 -45.89,-15.12 -5.547,-8.16 -8.817,-14.63 -12.227,-20.02 -2.488,-4.03 -4.851,-7.37 -7.293,-10.13 -3.73,-4.13 -7.285,-7.1 -13.496,-9.87 -6.211,-2.71 -15.683,-5.21 -31.25,-5.24 -18.625,-0.03 -45.734,3.87 -82.89,15.2 l 0.027,-0.01 c -25.965,7.92 -52.93,11.57 -79.902,11.57 -51.922,-0.03 -103.965,-13.41 -150.704,-37.42 -46.687,-24.06 -88.289,-58.92 -117.976,-103.32 l -0.07,-0.1 c -16.043,-24.22 -28.75,-51.73 -37.618,-80.96 -8.847,-29.23 -13.855,-60.207 -13.875,-91.406 0.008,-25.012 3.262,-50.305 10.692,-74.653 l -5.106,-1.668 0.196,0.059 C 215.703,843.574 137.91,784.188 84.0703,708.984 30.207,633.77 0.0078125,542.617 0,447.996 0,402.41 7.03125,356.055 21.7578,310.469 L 21.75,310.516 C 52.2539,215.664 111.68,137.82 186.922,83.9922 262.168,30.1367 353.34,0.0117188 447.938,0 c 45.48,-0.0117188 91.718,6.97266 137.179,21.6016 l -0.039,-0.0078 1288.202,413.0542 -1.22,-27.785 c -1.4,-15.886 -3.6,-29.785 -7.31,-39.785 -1.86,-5.098 -4,-9.219 -6.5,-12.691 -2.52,-3.489 -5.36,-6.418 -9.41,-9.309 -16.06,-11.387 -21.45,-32.859 -12.67,-50.476 8.78,-17.61 29.17,-26.243 47.92,-20.278 l 219.15,69.699 c 17.72,5.633 29.2,22.657 27.76,41.204 -1.38,17.925 -14.5,32.488 -31.99,36.011 l 0.03,0.09 -1.32,0.567 c -0.98,0.554 -1.55,1.015 -2.1,1.843 -0.48,0.918 -1.9,2.754 -2.01,10.332 l 0.06,2.375 0.02,0.364 2.76,69.656 c 2.37,0.312 4.74,0.769 7.07,1.523 l 216.17,70.039 -1.27,-28.535 c -1.42,-15.89 -3.54,-29.758 -7.15,-39.64 -1.82,-5.055 -3.91,-9.102 -6.33,-12.489 -2.45,-3.398 -5.2,-6.242 -9.2,-9.074 -16.09,-11.316 -21.57,-32.84 -12.84,-50.476 8.74,-17.629 29.17,-26.321 47.93,-20.379 l 219.23,69.441 c 17.73,5.613 29.22,22.637 27.8,41.184 -1.36,17.937 -14.51,32.527 -32,36.05 l 0.03,0.09 -1.42,0.606 c -1.03,0.586 -1.67,1.093 -2.24,1.972 -0.52,0.977 -1.94,2.864 -2.06,10.496 l 0.05,2.266 0.01,0.266 2.78,70.066 c 0.56,0.051 1.13,0.129 1.7,0.195 1.49,0.2 2.91,0.579 4.35,0.93 0.9,0.227 1.8,0.293 2.7,0.574 h -0.01 l 847.44,271.938 c 94.77,30.457 172.59,89.832 226.42,165.052 53.85,75.23 84.01,166.42 84.02,261.08 0,45.56 -7,91.89 -21.67,137.45 z M 1877.68,577.988 c 0.67,0.594 1.32,1.239 1.99,1.844 l -0.08,-1.824 c -0.64,0.027 -1.28,-0.012 -1.91,-0.02" /><path
         id="path16"
         style="fill:#b2b2b2;fill-opacity:1;fill-rule:nonzero;stroke:none"
         d="m 3569.55,1312.46 c -0.02,-0.02 -0.05,-0.04 -0.08,-0.06 -0.01,-0.02 -0.02,-0.03 -0.03,-0.04 l 0.11,0.1" /><path
         id="path18"
         style="fill:#e11d25;fill-opacity:1;fill-rule:nonzero;stroke:none"
         d="m 369.461,791.211 -29.188,-9.453 C 155.711,722.141 54.4727,524.641 114.082,340.32 173.758,155.879 371.258,54.8242 555.645,114.063 L 1878.07,538.074 1877.01,477.844 572.871,59.6797 C 358.887,-9.14063 128.895,108.215 59.8242,322.773 -9.375,536.895 108.418,766.941 322.668,836.016 l 12.879,4.226 c 9.953,-18.164 22.019,-35.469 33.914,-49.031" /><path
         id="path20"
         style="fill:#e11d25;fill-opacity:1;fill-rule:nonzero;stroke:none"
         d="m 2326.71,682.313 -231.97,-75.165 -3.55,-61.101 233.15,75.535 2.37,60.731" /><path
         id="path22"
         style="fill:#e11d25;fill-opacity:1;fill-rule:nonzero;stroke:none"
         d="m 2539.53,689.656 847.44,271.93 c 214.32,68.944 331.92,298.934 262.91,513.234 -69.25,214.62 -299.05,331.91 -513.61,262.84 l -98.88,-31.86 -2.55,-60.72 118.99,38.2 c 184.5,59.86 382.23,-41.63 441.8,-225.88 59.29,-184.31 -41.82,-382.07 -223.46,-440.56 l -829.59,-266.324 -3.05,-60.86" /><path
         id="path24"
         style="fill:#e11d25;fill-opacity:1;fill-rule:nonzero;stroke:none"
         d="m 908.953,1023.81 1909.837,612.05 -1.74,-60.54 -1912.011,-612.863 3.914,61.353" /><path
         id="path26"
         style="fill:#e11d25;fill-opacity:1;fill-rule:nonzero;stroke:none"
         d="M 797.637,988.152 594.648,923.25 c 11.133,-15.555 36.532,-30.984 62.11,-39.949 l 167.254,53.523 c -4.668,15.926 -15.242,37.203 -26.375,51.328" /><path
         id="path28"
         style="fill:#284191;fill-opacity:1;fill-rule:nonzero;stroke:none"
         d="m 2061.25,1221.69 18.49,-30.74 c 26.45,42.68 133.67,134.34 206.59,51.89 87.67,-99.31 70.62,-343.731 20.54,-430.477 -42.87,-73.918 -131.73,-152.07 -241.39,-76.66 l -11.76,-297.312 c -2.42,-50.09 37.41,-56.25 37.41,-56.25 l -219.16,-69.7 c 30.73,21.786 36.9,56.875 40,91.477 l 31.92,726.052 c -1.49,18.78 -8.21,37.08 -23.07,48.41 l 140.43,43.31 m 89.67,-399.612 c 38.58,43.672 49.66,98.938 55.88,155.496 6.85,59.056 -5.04,146.786 -39.08,159.236 -23.27,9.33 -34.59,-8.22 -45.85,-24.02 -26.39,-40.94 -39.46,-88.86 -43.37,-136.77 -3.99,-50.024 -7.66,-107.524 4.17,-148.586 15.75,-25.52 47.85,-22.09 68.25,-5.356" /><path
         id="path30"
         style="fill:#284191;fill-opacity:1;fill-rule:nonzero;stroke:none"
         d="m 2507.92,1364.69 18.41,-30.62 c 26.51,42.68 133.85,134.28 206.6,51.77 87.62,-99.31 70.87,-343.61 20.47,-430.606 -42.69,-73.918 -131.8,-151.828 -241.38,-76.66 l -11.76,-297.187 c -2.3,-50.157 37.72,-56.375 37.72,-56.375 l -219.23,-69.446 c 30.79,21.653 36.46,56.747 39.58,91.094 l 32.42,726.18 c -1.57,18.92 -8.35,37.21 -23.41,48.41 l 140.58,43.44 m 89.6,-400.057 c 38.52,44.117 49.66,99.497 56.06,155.877 6.67,58.74 -5.22,146.66 -39.38,159.29 -23.09,9.34 -34.54,-8.33 -45.62,-24.26 -26.45,-40.45 -39.63,-88.61 -43.31,-136.28 -4.04,-50.4 -7.84,-107.77 3.99,-148.713 15.87,-25.512 47.78,-22.094 68.26,-5.914" /><path
         id="path32"
         style="fill:#284191;fill-opacity:1;fill-rule:nonzero;stroke:none"
         d="M 865.086,910.93 C 852.391,988.402 789.785,1074.46 707.91,1094.68 638.457,1113.36 503.066,1073.84 533.359,961.773 579.785,801.172 874.48,846.223 926.434,609.883 959.168,422.898 849.531,309.707 741.434,250.398 629.93,187.742 392.547,114.324 255.832,308.516 c -43.559,67.39 -76.723,235.539 118.981,317.422 66.085,20.664 144.609,24.14 201.171,-19.543 118.594,-92.34 53.704,-182.313 20.528,-185.809 14.57,27.512 -8.145,115.867 -94.832,98.574 C 396.777,494.453 390.242,365.828 465.848,324.453 575.176,273.867 774.922,373.047 730.066,547.473 685.938,710.938 446.492,692.52 368.398,852.566 c -42.187,74.426 -23.957,180.204 21.036,248.034 63.906,95.7 197.754,145.42 303.652,113.12 157.5,-47.91 172.871,18.3 191.719,45.62 L 865.086,910.93" /><path
         id="path34"
         style="fill:#284191;fill-opacity:1;fill-rule:nonzero;stroke:none"
         d="m 1875.7,1164.07 c -23.47,-24.77 -25.89,-59.74 -31.86,-92.59 l -11.76,-318.968 c -2.55,-37.649 42.8,-82.27 86.48,10.703 5.12,-86.379 -62.34,-170.754 -115.1,-182.082 -28.93,-6.348 -55.26,6.289 -75.68,26.883 -20.53,-49.286 -135.08,-172.246 -266.76,0.929 -17.11,-72.734 -51.03,-163.468 -136.52,-180.011 -79.65,-10.582 -101.24,68.261 -103.11,105.597 l 9.65,267.012 c -1.43,14.133 -6.1,29.617 -19.92,35.652 -41.57,-1.55 -54.82,-48.972 -70.12,-77.968 -28.94,-98.438 -21.48,-208.211 -28.7,-314.247 1.58,-55.128 32.68,-57.988 32.68,-57.988 L 943.242,322.645 c 25.196,19.543 27.762,54.64 31.543,86.25 l 16.25,320.332 c -5.285,94.218 -80.715,51.535 -103.789,-12.071 -7.219,72.805 32.039,137.649 95.828,177.231 27.436,16.172 99.806,42.554 134.346,-39.707 37.38,65.093 101.49,137.765 185,130.863 124.76,-16.617 40.81,-289.535 66.33,-415.367 2.18,-10.949 44.68,-36.707 86.62,48.918 -52.1,127.754 -31.68,298.687 53.69,406.276 105.6,123.88 191.6,59.42 203.36,41 3.11,15.12 10.59,38.21 16.62,49.47 l 146.66,48.23 M 1694.32,973.281 c -37.72,53.139 -91.42,-26.879 -104.05,-71.179 -56.07,-193.899 10.34,-251.528 46.18,-241.313 34.27,9.699 54.14,45.918 56.06,77.844 4.23,74.414 16.05,214.238 1.81,234.648" /><path
         id="path36"
         style="fill:#284191;fill-opacity:1;fill-rule:nonzero;stroke:none"
         d="m 3005.55,1855.52 -32.93,-752.19 c -0.51,-12.69 6.97,-24.95 18.54,-28.74 35.16,-6.79 55.07,31.1 70.38,56.75 -12.45,-159.426 -136.96,-194.652 -164.46,-184.567 -78.29,15.125 -64.28,131.297 -64.28,131.297 l 30.56,663.21 c -1.39,23.77 -11.77,49.9 -30.81,60.11 l 173,54.13" /><path
         id="path38"
         style="fill:#284191;fill-opacity:1;fill-rule:nonzero;stroke:none"
         d="m 3167.88,1055.43 c -162.78,59.73 -136.64,303.28 -90.35,409.19 45.11,90.59 155.01,184.56 285.99,147.35 123.9,-37.96 90.54,-189.42 59.18,-245.54 -40.64,-62.73 -135.41,-106.16 -229.42,-64.22 -7.98,-41.32 -0.32,-83.07 21.77,-115.12 22.15,-24.27 52.58,-33.23 84.2,-28.25 60.54,14.44 118.16,69.57 141.5,126.75 14.99,-144.92 -134.04,-277.33 -272.87,-230.16 m 128.37,334.51 c 32.11,22.15 54.02,139.65 -8.71,137.21 -33.28,-2.05 -60.79,-36.02 -69,-65.02 -6.66,-25.2 -22.08,-52.77 -11.08,-79.15 24.58,-23.78 66.27,-10.71 88.79,6.96" /><path
         id="path40"
         style="fill:#284191;fill-opacity:1;fill-rule:nonzero;stroke:none"
         d="m 3534.14,1396.67 c 6.91,-6.23 11.21,-14.19 12.01,-23.58 0.81,-9.4 -1.68,-17.99 -7.46,-25.21 -6.28,-7.47 -14.13,-11.63 -23.65,-12.31 -9.52,-0.76 -17.79,1.73 -25.15,7.71 -7.27,6.28 -11.37,13.99 -12.18,23.65 -0.87,9.57 1.73,18.03 7.83,25.07 6.16,7.53 13.82,11.64 23.15,12.38 9.65,1.06 18.11,-1.68 25.45,-7.71 m 6.17,0.31 c -7.79,7.9 -17.24,11.75 -28.38,11.63 -11.2,-0.13 -20.28,-4.1 -28.18,-11.94 -7.67,-7.84 -11.52,-17.31 -11.65,-28.12 0,-11.4 4.24,-20.79 12.01,-28.63 7.78,-7.85 17.12,-11.52 28.32,-11.52 11.13,-0.12 20.66,3.92 28.38,11.89 7.65,7.84 11.5,17.55 11.5,28.5 -0.24,11.07 -4.04,20.72 -12,28.19 z m -22.54,-24.46 c -1.55,-0.86 -3.97,-1.49 -7.4,-1.8 l -6.83,-0.44 -1.44,15.56 6.53,0.69 c 4.36,0.55 7.53,0.11 9.46,-0.69 2.05,-0.88 3.36,-3.11 3.36,-6.23 0.49,-3.11 -0.81,-5.72 -3.68,-7.09 z m -21.66,-25.7 7.85,-0.12 -0.05,17.49 6.03,-0.25 c 4.1,0 6.9,-0.25 8.58,-1.31 2.93,-1.43 4.23,-4.66 4.29,-10.02 l -0.06,-3.48 0.32,-1.25 c -0.06,-0.25 0.18,-0.62 0.18,-0.62 0.06,0 0,-0.31 0.06,-0.31 l 7.16,-0.25 -0.24,0.56 c -0.31,0.5 -0.26,1.37 -0.31,2.3 -0.26,1.19 -0.19,2.37 -0.19,3.55 l -0.13,2.86 c 0.19,2.49 -0.67,4.86 -2.55,7.09 -1.62,2.18 -4.17,3.49 -7.53,3.99 2.73,0.5 4.91,1.18 6.53,2.24 2.8,1.87 4.11,4.98 4.11,8.96 -0.19,5.35 -2.31,9.21 -6.91,10.89 -2.55,1.06 -6.53,1.55 -11.94,1.68 l -15.37,-0.13 0.17,-43.87" /></g></g></svg>